<svg width="679" height="679" viewBox="0 0 679 679" fill="none" xmlns="http://www.w3.org/2000/svg">
<g opacity="0.06">
<rect y="282.843" width="400" height="560" rx="180" transform="rotate(-45 0 282.843)" fill="#D6B588"/>
</g>
<path d="M485.281 375.229C485.585 374.092 486.13 372.816 486.812 371.781L501.181 347.604C505.188 340.96 513.617 338.954 520.095 342.72C526.71 346.727 528.695 355.179 524.928 361.685L510.558 385.861C506.552 392.505 498.123 394.511 491.645 390.745C486.061 387.421 483.707 381.103 485.281 375.229Z" fill="#F9F6F2"/>
<path d="M499.65 351.053C499.955 349.916 500.499 348.64 501.181 347.604L515.602 323.238C519.608 316.594 528.037 314.588 534.515 318.355C541.131 322.361 543.115 330.814 539.349 337.319L524.979 361.495C520.973 368.139 512.544 370.146 506.066 366.379C500.619 363.295 498.076 356.927 499.65 351.053Z" fill="#EACFAB"/>
</svg>
