<svg width="317" height="354" viewBox="0 0 317 354" fill="none" xmlns="http://www.w3.org/2000/svg">
<g clip-path="url(#clip0_2086_428)">
<g opacity="0.06">
<rect x="105.473" y="397.196" width="300" height="420" rx="135" transform="rotate(-120.104 105.473 397.196)" fill="#D6B588"/>
</g>
<path d="M93.2033 172.739C93.8614 173.645 94.7835 174.59 95.7504 175.271L116.909 191.73C122.775 196.233 131.102 195.027 135.72 189.366C140.383 183.442 139.35 175.197 133.748 170.733L112.589 154.275C106.723 149.772 98.3958 150.977 93.7776 156.639C89.822 161.588 89.8036 168.059 93.2033 172.739Z" fill="#F9F6F2"/>
<path d="M114.361 189.198C115.019 190.104 115.941 191.048 116.908 191.73L138.176 208.339C144.043 212.842 152.37 211.637 156.988 205.975C161.651 200.051 160.618 191.807 155.015 187.343L133.857 170.884C127.99 166.381 119.663 167.587 115.045 173.248C111.134 177.934 110.961 184.518 114.361 189.198Z" fill="#EACFAB"/>
</g>
<defs>
<clipPath id="clip0_2086_428">
<rect width="317" height="354" fill="white"/>
</clipPath>
</defs>
</svg>
