<svg width="318" height="184" viewBox="0 0 318 184" fill="none" xmlns="http://www.w3.org/2000/svg">
<rect width="59.3688" height="80.8352" rx="17.3689" transform="matrix(0.0866236 0.996241 -0.995794 0.0916226 115.398 153.294)" fill="#D6B588" fill-opacity="0.13"/>
<rect width="58.6875" height="81.8045" rx="17.3689" transform="matrix(-0.639562 0.76874 -0.750576 -0.660784 181.695 136.581)" fill="#D6B588" fill-opacity="0.13"/>
<rect width="58.7597" height="81.7028" rx="17.3689" transform="matrix(0.60483 0.796355 -0.779465 0.626446 174.862 164.063)" fill="#D6B588" fill-opacity="0.13"/>
<rect width="57.9152" height="82.8763" rx="17.3689" transform="matrix(-0.938851 -0.344323 0.327473 -0.944861 232.852 186.926)" fill="#D6B588" fill-opacity="0.13"/>
<rect width="57.7764" height="83.0658" rx="17.3689" transform="matrix(-0.984035 -0.177973 0.168472 -0.985706 126.887 93.1377)" fill="#D6B588" fill-opacity="0.13"/>
<rect width="58.7939" height="81.6546" rx="17.3689" transform="matrix(0.587714 0.809069 -0.792837 0.609433 286.59 14.8306)" fill="#D6B588" fill-opacity="0.13"/>
<rect width="58.7096" height="81.7733" rx="17.3689" transform="matrix(0.629096 0.777328 -0.759537 0.650464 62.6128 67.1392)" fill="#D6B588" fill-opacity="0.13"/>
<rect width="59.3795" height="80.8197" rx="17.3689" transform="matrix(-0.0354559 -0.999371 0.999296 -0.037516 222.596 240.395)" fill="#D6B588" fill-opacity="0.13"/>
<rect width="58.4867" height="82.0858" rx="17.3689" transform="matrix(-0.72804 -0.685535 0.664762 -0.747055 297.332 179.325)" fill="#D6B588" fill-opacity="0.13"/>
<rect width="58.4867" height="82.0858" rx="17.3689" transform="matrix(-0.72804 -0.685535 0.664762 -0.747055 177.684 120.862)" fill="#D6B588" fill-opacity="0.13"/>
</svg>
