<svg width="236" height="146" viewBox="0 0 236 146" fill="none" xmlns="http://www.w3.org/2000/svg">
<g opacity="0.4">
<g opacity="0.64">
<path fill-rule="evenodd" clip-rule="evenodd" d="M35.9382 84.2855L78.9217 56.4933L43.1756 0.29548L0.191977 28.0876C-15.3442 38.133 -19.8296 58.6577 -9.90009 74.2682C-0.395026 89.786 20.402 94.3309 35.9382 84.2855Z" fill="#EACFAB" fill-opacity="0.3"/>
<path fill-rule="evenodd" clip-rule="evenodd" d="M121.996 28.2719L79.013 56.0641L43.2669 -0.133705L86.2503 -27.9259C101.787 -37.9713 122.159 -33.5192 132.089 -17.9086C142.018 -2.29814 137.439 18.6542 121.996 28.2719Z" fill="#C49F6D"/>
<path d="M208.672 145.588C206.38 145.588 203.707 145.206 201.415 144.442L148.705 129.546C134.191 125.345 126.17 110.449 129.99 96.3163C134.191 81.8021 149.087 73.7811 163.22 77.6007L215.929 92.4968C230.443 96.6983 238.464 111.594 234.645 125.727C231.207 137.949 220.513 145.588 208.672 145.588Z" fill="#C49F6D"/>
<path d="M155.96 130.693C153.669 130.693 150.995 130.311 148.703 129.547L95.6118 114.651C81.0976 110.449 73.0766 95.5531 76.8961 81.4208C81.0976 66.9066 95.9937 58.8856 110.126 62.7052L162.835 77.6013C177.35 81.8028 185.371 96.6989 181.551 110.831C178.495 122.672 167.801 130.693 155.96 130.693Z" fill="#EACFAB" fill-opacity="0.3"/>
</g>
</g>
</svg>
