<svg width="194" height="231" viewBox="0 0 194 231" fill="none" xmlns="http://www.w3.org/2000/svg">
<g opacity="0.4">
<g opacity="0.64">
<path fill-rule="evenodd" clip-rule="evenodd" d="M118.701 137.107L80.2026 103.436L36.0788 153.272L74.577 186.943C88.4921 199.114 109.429 197.775 121.686 183.932C133.97 170.522 132.616 149.277 118.701 137.107Z" fill="#EACFAB" fill-opacity="0.3"/>
<path fill-rule="evenodd" clip-rule="evenodd" d="M41.2676 69.7952L79.7658 103.466L35.642 153.303L-2.85629 119.631C-16.7713 107.461 -18.0981 86.6503 -5.84144 72.8068C6.41519 58.9634 27.7887 57.597 41.2676 69.7952Z" fill="#C49F6D"/>
<path d="M130.091 -45.8359C130.72 -43.6333 131.088 -40.9584 130.983 -38.5452L131.149 16.2207C131.099 31.3287 118.993 43.1446 104.37 43.3699C89.2748 43.3335 77.4799 31.2282 77.2681 16.5927L77.1024 -38.1733C77.1525 -53.2812 89.2582 -65.0971 103.881 -65.3225C116.565 -65.3884 126.84 -57.2158 130.091 -45.8359Z" fill="#C49F6D"/>
<path d="M130.283 8.94006C130.912 11.1426 131.279 13.8176 131.175 16.2308L131.445 71.3638C131.395 86.4717 119.289 98.2876 104.666 98.513C89.5712 98.4765 77.7763 86.3713 77.5644 71.7357L77.3988 16.9698C77.4489 1.86184 89.5546 -9.95405 104.178 -10.1794C116.39 -10.5071 127.031 -2.43986 130.283 8.94006Z" fill="#EACFAB" fill-opacity="0.3"/>
</g>
</g>
</svg>
